<svg width="173" height="29" viewBox="0 0 173 29" fill="none" xmlns="http://www.w3.org/2000/svg">
<path id="Vector" d="M22.3753 12.0638C22.26 11.9464 22.1734 11.7702 22.1734 11.5941C22.1734 11.418 22.2311 11.2419 22.3753 11.1245L27.1337 6.28137C27.3932 6.0172 27.797 6.0172 28.0565 6.28137L37.6887 16.085C38.3808 16.8188 38.3808 17.9929 37.6598 18.7267L27.7681 28.7945C27.6528 28.9119 27.4798 29 27.3067 29H17.7899C17.5304 29 17.2708 28.8239 17.1843 28.5891C17.0978 28.3249 17.1555 28.0314 17.3574 27.8553L27.1625 17.8755C27.2779 17.7581 27.3644 17.582 27.3644 17.4059C27.3644 17.2298 27.3067 17.0536 27.1625 16.9362L22.3753 12.0638ZM15.8289 16.9362C15.9443 17.0536 16.0308 17.2298 16.0308 17.4059C16.0308 17.582 15.9731 17.7581 15.8289 17.8755L11.0705 22.7186C10.811 22.9828 10.4072 22.9828 10.1477 22.7186L0.515547 12.915C-0.176582 12.1812 -0.176582 11.0071 0.544386 10.2733L10.4361 0.205469C10.5514 0.0880602 10.7245 0 10.8975 0H20.4431C20.7027 0 20.9622 0.176112 21.0487 0.410929C21.1352 0.675099 21.0776 0.968621 20.8757 1.14473L11.0705 11.1245C10.9552 11.2419 10.8687 11.418 10.8687 11.5941C10.8687 11.7702 10.9263 11.9464 11.0705 12.0638L15.8289 16.9362ZM49.5991 17.1417C50.5796 18.0516 52.108 18.6093 53.5788 18.6093C54.617 18.6093 55.4245 18.081 55.4245 17.3472C55.4245 15.1164 48.3878 15.9089 48.3878 11.1538C48.3878 8.30668 51.0698 6.54555 53.9537 6.54555C55.8282 6.54555 57.9046 7.27935 58.8563 8.04251L57.0395 10.919C56.2897 10.3613 55.3091 9.92106 54.2421 9.92106C53.1751 9.92106 52.2522 10.3613 52.2522 11.1245C52.2522 13.0324 59.2889 12.2692 59.2889 17.4059C59.2889 20.253 56.5492 21.9848 53.5211 21.9848C51.5024 21.9848 49.3972 21.2804 47.6669 20.0182L49.5991 17.1417ZM65.4604 16.496C66.2679 17.6407 67.5656 18.3451 68.9787 18.3158C71.1704 18.3158 72.8142 16.6134 72.8142 14.2945C72.8142 12.1518 71.3435 10.2439 69.0652 10.2439C67.6521 10.2439 66.3255 10.919 65.4604 12.0638V16.496ZM61.5671 6.86842H65.3162V8.04251C66.4409 7.10324 67.9117 6.54555 69.5555 6.54555C73.5064 6.54555 76.6786 9.8917 76.6786 14.2652C76.6786 16.2905 75.9865 18.1103 74.8618 19.4605C73.564 20.9868 71.5165 21.9555 69.3536 21.9555C67.8828 21.9555 66.6139 21.5152 65.4604 20.6053V28.9706H61.5671V6.86842ZM88.3006 12.3573C88.1853 11.0364 87.0029 9.77429 85.4168 9.77429C83.8018 9.77429 82.4752 11.0364 82.3022 12.3573H88.3006ZM91.9343 19.3138C90.5212 21.0162 88.2141 21.9555 85.9647 21.9555C81.6101 21.9555 78.3513 18.9028 78.3513 14.2652C78.3513 10.1559 81.1198 6.54555 85.4168 6.54555C89.4253 6.54555 92.2804 9.97976 92.2804 14.1184C92.2804 14.5 92.2515 14.9109 92.1939 15.2338H82.1292C82.331 17.3178 83.9748 18.7267 86.0512 18.7267C87.695 18.7267 89.0216 17.7874 89.7137 17.0243L91.9343 19.3138ZM94.5298 21.6619V6.86842H98.2788V8.04251C99.4324 7.07388 100.874 6.54555 102.374 6.54555C104.393 6.54555 106.209 7.45546 107.421 8.92307C108.372 10.0678 108.92 11.5648 108.92 14.1184V21.6619H105.027V13.8249C105.027 12.3573 104.71 11.5941 104.162 11.0364C103.643 10.5081 102.864 10.2146 101.97 10.2146C100.326 10.2146 98.971 11.2713 98.423 12.0344V21.6326H94.5298V21.6619ZM122.244 12.0638C121.408 10.919 120.052 10.2439 118.639 10.2439C116.361 10.2439 114.89 12.1518 114.89 14.2945C114.89 16.6134 116.534 18.3158 118.726 18.3158C120.11 18.3158 121.436 17.6407 122.244 16.496V12.0638ZM122.388 21.6619V20.4879C121.177 21.5152 119.821 21.9848 118.351 21.9848C116.188 21.9848 114.169 21.0162 112.871 19.4899C111.66 18.0516 110.997 16.2024 111.026 14.2945C111.026 9.95041 114.198 6.5749 118.149 6.5749C119.735 6.5749 121.119 7.04453 122.244 7.95445V0.029354H126.137V21.6913H122.388V21.6619ZM138.422 12.3573C138.307 11.0364 137.125 9.77429 135.538 9.77429C133.924 9.77429 132.597 11.0364 132.424 12.3573H138.422ZM142.056 19.3138C140.643 21.0162 138.336 21.9555 136.086 21.9555C131.732 21.9555 128.473 18.9028 128.473 14.2652C128.473 10.1559 131.242 6.54555 135.538 6.54555C139.547 6.54555 142.402 9.97976 142.402 14.1184C142.402 14.5 142.373 14.9109 142.316 15.2338H132.251C132.453 17.3178 134.097 18.7267 136.173 18.7267C137.817 18.7267 139.143 17.7874 139.835 17.0243L142.056 19.3138ZM146.065 17.1417C147.045 18.0516 148.574 18.6093 150.044 18.6093C151.083 18.6093 151.89 18.081 151.89 17.3472C151.89 15.1164 144.853 15.9089 144.853 11.1538C144.853 8.30668 147.535 6.54555 150.419 6.54555C152.294 6.54555 154.37 7.27935 155.322 8.04251L153.505 10.919C152.755 10.3613 151.775 9.92106 150.708 9.92106C149.641 9.92106 148.718 10.3613 148.718 11.1245C148.718 13.0324 155.754 12.2692 155.754 17.4059C155.754 20.253 153.015 21.9848 149.987 21.9848C147.968 21.9848 145.863 21.2804 144.132 20.0182L146.065 17.1417ZM165.012 13.5314L173 21.6619H167.751L161.609 15.2632V21.6619H157.715V0H161.609V11.6528L166.598 6.86842H172.077L165.012 13.5314Z" fill="#6000D7"/>
</svg>
